<svg xmlns="http://www.w3.org/2000/svg" xmlns:svgjs="http://svgjs.com/svgjs" xmlns:xlink="http://www.w3.org/1999/xlink" width="288" height="288"><svg xmlns="http://www.w3.org/2000/svg" width="288" height="288" fill-rule="evenodd" clip-rule="evenodd" image-rendering="optimizeQuality" shape-rendering="geometricPrecision" text-rendering="geometricPrecision" viewBox="0 0 200 200"><path fill="#4f46e5" d="M 9.5,10.5 C 25.7505,10.8615 40.7505,15.3615 54.5,24C 65.1962,32.0156 76.5295,39.0156 88.5,45C 99.9264,48.1369 110.593,46.4702 120.5,40C 132.025,30.8186 144.358,22.8186 157.5,16C 167.815,12.2416 178.481,10.4083 189.5,10.5C 189.5,26.1667 189.5,41.8333 189.5,57.5C 181.498,57.917 173.832,59.7504 166.5,63C 150.996,72.2528 135.33,81.2528 119.5,90C 99.4854,96.7364 80.8187,94.0698 63.5,82C 55.3399,76.086 47.0065,70.4193 38.5,65C 34.0742,62.4708 29.4076,60.6375 24.5,59.5C 24.5,64.8333 24.5,70.1667 24.5,75.5C 31.7953,77.099 38.7953,79.599 45.5,83C 57.6655,90.9171 69.9988,98.5838 82.5,106C 93.1933,110.619 103.86,110.619 114.5,106C 125.699,100.125 136.365,93.4582 146.5,86C 159.554,77.4827 173.887,73.316 189.5,73.5C 189.833,88.8478 189.499,104.181 188.5,119.5C 182.314,120.713 176.314,122.547 170.5,125C 158.336,131.245 146.669,138.245 135.5,146C 112.657,159.548 89.6573,159.881 66.5,147C 53.4673,137.807 39.8006,129.64 25.5,122.5C 24.5052,127.792 24.1718,133.125 24.5,138.5C 32.5915,140.543 40.2581,143.71 47.5,148C 57.8303,155.167 68.497,161.834 79.5,168C 92.5,174 105.5,174 118.5,168C 130.759,161.399 142.759,154.399 154.5,147C 165.36,140.769 177.027,137.269 189.5,136.5C 189.5,141.833 189.5,147.167 189.5,152.5C 183.642,152.705 177.975,153.872 172.5,156C 161.01,161.575 150.01,167.909 139.5,175C 127.075,182.8 113.575,187.3 99,188.5C 85.8342,187.834 73.6675,184 62.5,177C 49.2725,166.457 34.6058,158.457 18.5,153C 15.5682,152.047 12.5682,151.547 9.5,151.5C 9.5,135.833 9.5,120.167 9.5,104.5C 19.9339,104.687 29.9339,106.853 39.5,111C 51.0078,117.251 62.0078,124.251 72.5,132C 85.9016,141.291 100.235,143.291 115.5,138C 127.492,132.342 138.825,125.675 149.5,118C 157.261,113.786 165.261,110.119 173.5,107C 174.639,101.584 174.806,96.0838 174,90.5C 168.337,92.5806 162.837,95.0806 157.5,98C 146.1,105.729 134.433,113.062 122.5,120C 107.648,126.865 92.6483,127.198 77.5,121C 62.1667,112 46.8333,103 31.5,94C 24.3898,91.2224 17.0564,89.3891 9.5,88.5C 9.5,73.1667 9.5,57.8333 9.5,42.5C 18.4078,41.9216 27.0745,43.0883 35.5,46C 49.273,52.779 62.273,60.779 74.5,70C 87.8433,79.2105 101.843,80.5438 116.5,74C 127.334,68.4194 137.668,62.0861 147.5,55C 155.814,50.3425 164.48,46.5092 173.5,43.5C 174.495,38.2079 174.828,32.8746 174.5,27.5C 168.192,28.7697 162.192,30.9364 156.5,34C 147.167,40.6667 137.833,47.3333 128.5,54C 108.326,65.5601 88.3259,65.2268 68.5,53C 56.7984,43.8125 44.1317,36.1458 30.5,30C 23.6559,27.8643 16.6559,26.6977 9.5,26.5C 9.5,21.1667 9.5,15.8333 9.5,10.5 Z" class="color000 svgShape" opacity=".928"/></svg></svg>