<?xml version="1.0" encoding="utf-8"?>
<!-- Generator: Adobe Illustrator 27.0.1, SVG Export Plug-In . SVG Version: 6.00 Build 0)  -->
<svg version="1.1" id="Layer_1" xmlns="http://www.w3.org/2000/svg" xmlns:xlink="http://www.w3.org/1999/xlink" x="0px" y="0px"
	 viewBox="0 0 198.91 28.37" style="enable-background:new 0 0 198.91 28.37;" xml:space="preserve">
<style type="text/css">
	.st0{fill:#2196F3;}
	.st1{fill-rule:evenodd;clip-rule:evenodd;fill:#2196F3;}
	.st2{opacity:0.929;fill-rule:evenodd;clip-rule:evenodd;fill:#1878C6;}
</style>
<path class="st0" d="M24.13,28.08c-0.58,0-1.05-0.3-1.42-0.89c-0.32-0.51-0.6-1.37-0.86-2.56l-0.57-2.75
	c-0.44-1.7-1.13-5.45-2.07-11.26l-3.19,9.62l-0.95,3.03c-0.38,1.2-0.78,2.19-1.2,2.95c-0.45,0.8-1.05,1.2-1.81,1.2
	c-0.63,0-1.12-0.34-1.49-1.01c-0.23-0.45-0.45-1.02-0.64-1.71l-0.46-1.77c-1.07-3.75-2.02-7.77-2.84-12.06l-0.57,2.86l-2.06,8.43
	c-0.09,0.98-0.35,2.45-0.8,4.38c-0.32,0.83-0.84,1.24-1.57,1.24c-0.52,0-0.94-0.19-1.25-0.56C0.13,26.91,0,26.51,0,26.04
	c0-1.77,0.36-3.95,1.1-6.54l1.75-6.42l0.92-5.03C4.24,5.7,4.74,4.17,5.25,3.45c0.43-0.61,0.95-0.92,1.58-0.92
	c0.69,0,1.21,0.39,1.55,1.18C8.8,4.65,9.24,6.58,9.72,9.49c0.57,3.5,1.44,7.28,2.63,11.36c1.58-4.1,2.94-8.36,4.09-12.79l0.48-2.33
	c0.19-0.94,0.44-1.69,0.75-2.26c0.41-0.78,0.98-1.17,1.71-1.17c0.91,0,1.61,0.88,2.09,2.64c0.17,0.6,0.38,1.86,0.62,3.76
	c0.63,4.8,1.41,8.91,2.34,12.31l0.78,2.74c0.4,1.47,0.6,2.38,0.6,2.71c0,0.46-0.17,0.84-0.52,1.15
	C24.95,27.93,24.57,28.08,24.13,28.08"/>
<path class="st0" d="M38.94,5.88c-2.59,0-4.66,1.3-6.19,3.89c-1.41,2.38-1.97,5.01-1.67,7.88c0.22,2.05,1.15,3.72,2.8,5.01
	c1.58,1.21,3.44,1.82,5.58,1.82c2.58,0,4.57-1.31,5.97-3.91c1.25-2.33,1.72-4.94,1.42-7.85c-0.27-2.54-1.02-4.33-2.27-5.36
	C43.4,6.38,41.52,5.88,38.94,5.88 M39.81,27.75c-2.99,0-5.63-0.9-7.9-2.69c-2.41-1.91-3.77-4.38-4.09-7.4
	c-0.39-3.68,0.35-7.02,2.21-10.03c2.09-3.33,4.94-5,8.57-5c3.49,0,6.17,0.79,8.04,2.36c1.95,1.64,3.1,4.22,3.48,7.75
	c0.39,3.68-0.27,6.99-1.95,9.95C46.23,26.06,43.44,27.75,39.81,27.75z"/>
<path class="st0" d="M71.15,4.93c-0.66,0.99-1.2,2.03-1.61,3.11l-1.21,3.49l-4.3,11.59c-0.5,1.36-1.08,2.69-1.75,3.98
	c-0.34,0.64-0.82,0.96-1.44,0.96c-0.82,0-1.39-0.41-1.72-1.24c-1.28-3.23-2.71-7.88-4.28-13.95l-1.26-4.38
	c-0.63-2.21-0.94-3.66-0.94-4.34c0-0.48,0.17-0.87,0.51-1.18c0.3-0.29,0.67-0.43,1.11-0.43c0.81,0,1.33,0.44,1.56,1.31l0.59,2.77
	l1.53,5.42c1.02,3.95,2.01,7.36,2.98,10.22l0.1-0.26l4.28-11.58l1.35-3.91c0.61-1.58,1.25-2.77,1.94-3.58
	c0.35-0.42,0.76-0.64,1.25-0.64c0.42,0,0.81,0.16,1.14,0.48c0.33,0.33,0.5,0.72,0.5,1.18C71.47,4.29,71.37,4.61,71.15,4.93"/>
<path class="st1" d="M75.15,26.09L75.15,26.09c0-7.15,0.14-13.65,0.42-19.51L75.68,5l0-0.73c0-0.54,0.15-1.01,0.45-1.39
	c0.3-0.38,0.68-0.57,1.13-0.57c0.45,0,0.83,0.19,1.14,0.57c0.3,0.38,0.45,0.84,0.45,1.39v0.01h0l0,0c0,7.15-0.14,13.65-0.42,19.51
	l-0.11,1.58l0,0.73c0,0.54-0.15,1.01-0.45,1.39c-0.3,0.38-0.68,0.57-1.13,0.57c-0.45,0-0.83-0.19-1.14-0.57
	c-0.3-0.38-0.45-0.84-0.45-1.39L75.15,26.09L75.15,26.09z"/>
<path class="st0" d="M128.42,26.09c-1.2,0.56-3.09,1.06-5.66,1.5c-2.37,0.41-4.31,0.62-5.81,0.62c-1.07,0-1.84-0.16-2.31-0.49
	c-0.64-0.45-0.96-1.26-0.96-2.45l0.31-5.27c0.27-4.86,0.41-10.26,0.41-16.18c0-0.46,0.15-0.85,0.45-1.16
	c0.3-0.32,0.68-0.48,1.13-0.48c0.45,0,0.83,0.16,1.14,0.48c0.3,0.32,0.45,0.71,0.45,1.16c0,6-0.14,11.46-0.42,16.37l-0.21,2.42
	c-0.08,0.89-0.11,1.66-0.09,2.34c2.78,0.03,6.29-0.61,10.54-1.94c0.18-0.05,0.35-0.08,0.51-0.08c0.46,0,0.84,0.18,1.15,0.54
	c0.27,0.33,0.4,0.71,0.4,1.13C129.44,25.27,129.1,25.77,128.42,26.09"/>
<path class="st0" d="M142.85,8.97l-4.73,7.34c1.34-0.33,3.37-0.73,6.09-1.2L142.85,8.97z M148.72,27.21c-1.02,0-1.91-1.26-2.66-3.78
	c-0.29-0.96-0.67-2.63-1.12-5.03c-1.12,0.15-2.59,0.42-4.4,0.8l-4.39,0.88c-0.56,1.39-1.5,3.43-2.85,6.11
	c-0.36,0.59-0.83,0.89-1.45,0.89c-0.44,0-0.83-0.15-1.18-0.46c-0.35-0.31-0.52-0.69-0.52-1.15c0-0.51,0.83-2.45,2.51-5.83
	c-0.19-0.28-0.28-0.59-0.28-0.96c0-0.86,0.54-1.41,1.63-1.66c1.26-2.27,2.85-4.88,4.77-7.83c2.62-4.03,4.26-6.04,4.9-6.04
	c0.88,0,1.47,0.58,1.8,1.75l1.04,5.36l2.48,11.08l0.95,2.53c0.32,0.86,0.48,1.44,0.48,1.72c0,0.46-0.17,0.84-0.52,1.15
	C149.55,27.06,149.16,27.21,148.72,27.21z"/>
<path class="st0" d="M172.58,23.36c0,0.51-0.07,1.36-0.22,2.55c-0.14,1.07-0.63,1.61-1.45,1.61c-0.5,0-1.09-0.38-1.77-1.15
	c-3.67-4.09-7.88-9.99-12.63-17.7l-0.07,3.62l-0.04,3.63c0,0.88,0.01,2.21,0.05,3.97c0.03,1.76,0.05,3.1,0.05,3.99
	c0,2.86-0.47,4.29-1.4,4.29c-0.49,0-0.89-0.18-1.18-0.56c-0.26-0.33-0.39-0.72-0.39-1.17c0-0.45,0.03-1.12,0.09-2.03
	c0.06-0.9,0.09-1.58,0.09-2.02c0-0.66,0.01-1.64,0.05-2.95c0.04-1.31,0.06-2.3,0.06-2.96c0-0.7-0.01-1.76-0.04-3.18
	c-0.03-1.42-0.04-2.48-0.04-3.18c0-0.67-0.05-1.66-0.16-2.99c-0.11-1.32-0.16-2.32-0.16-2.99c0-0.48,0.18-0.93,0.53-1.34
	c0.36-0.4,0.76-0.6,1.21-0.6c0.47,0,1.07,0.61,1.77,1.85c2.24,3.96,4.26,7.25,6.05,9.87c2.14,3.11,4.48,6.09,7.03,8.92
	c0.02-0.46,0.01-1.13-0.01-2.02l-0.04-2.01c0-4.67-0.15-8.38-0.46-11.14c-0.04-0.28-0.16-0.83-0.36-1.68
	c-0.18-0.72-0.27-1.28-0.27-1.69c0-1.23,0.48-1.85,1.43-1.85c1.57,0,2.36,3.45,2.36,10.34c0,1.18-0.01,2.94-0.04,5.28
	C172.59,20.42,172.58,22.19,172.58,23.36"/>
<path class="st0" d="M188.53,9.81c-1.12-0.71-3.69-1.93-7.73-3.67l0.08,4.59l0.05,4.58l-0.27,8.71c0.08,0.03,0.19,0.1,0.35,0.21
	c0.96,0.63,2.17,0.94,3.64,0.94c2.49,0,4.31-0.37,5.45-1.12c1.06-0.7,1.91-1.65,2.54-2.83c0.63-1.19,0.94-2.42,0.94-3.7
	C193.58,14.52,191.9,11.95,188.53,9.81 M191.99,26.68c-1.7,1.13-4.13,1.69-7.3,1.69c-0.8,0-1.71-0.12-2.74-0.36
	c-1.23-0.29-2.16-0.66-2.79-1.12H179c-0.47,0-0.87-0.16-1.18-0.48c-0.32-0.32-0.48-0.71-0.48-1.16c0-1.12,0.05-2.79,0.15-5.01
	c0.1-2.23,0.15-3.9,0.15-5.02c0-1.24-0.02-3.1-0.07-5.56c-0.05-2.48-0.07-4.33-0.07-5.57c0-0.44,0.23-0.89,0.69-1.37
	c0.46-0.48,0.92-0.72,1.38-0.72c0.26,0,1.14,0.35,2.62,1.07c1.68,0.8,2.66,1.24,2.92,1.32c3.1,1.03,5.75,2.62,7.94,4.75
	c2.57,2.52,3.86,5.29,3.86,8.3c0,1.82-0.44,3.56-1.32,5.23C194.71,24.34,193.51,25.67,191.99,26.68z"/>
<path class="st2" d="M83.08,2.16c2.38,0.05,4.57,0.71,6.59,1.98c1.57,1.17,3.22,2.2,4.98,3.07c1.67,0.46,3.23,0.22,4.68-0.73
	c1.69-1.34,3.49-2.51,5.42-3.51c1.51-0.55,3.07-0.82,4.68-0.8c0,2.29,0,4.59,0,6.88c-1.17,0.06-2.29,0.33-3.37,0.81
	c-2.27,1.35-4.56,2.67-6.88,3.95c-2.93,0.99-5.66,0.6-8.2-1.17c-1.19-0.87-2.41-1.69-3.66-2.49c-0.65-0.37-1.33-0.64-2.05-0.81
	c0,0.78,0,1.56,0,2.34c1.07,0.23,2.09,0.6,3.07,1.1c1.78,1.16,3.59,2.28,5.42,3.37c1.57,0.68,3.13,0.68,4.68,0
	c1.64-0.86,3.2-1.84,4.68-2.93c1.91-1.25,4.01-1.86,6.29-1.83c0.05,2.25,0,4.49-0.15,6.73c-0.91,0.18-1.78,0.45-2.63,0.81
	c-1.78,0.91-3.49,1.94-5.12,3.07c-3.34,1.98-6.71,2.03-10.1,0.15c-1.91-1.35-3.91-2.54-6-3.59c-0.15,0.77-0.19,1.56-0.15,2.34
	c1.18,0.3,2.31,0.76,3.37,1.39c1.51,1.05,3.07,2.02,4.68,2.93c1.9,0.88,3.81,0.88,5.71,0c1.79-0.97,3.55-1.99,5.27-3.07
	c1.59-0.91,3.3-1.42,5.12-1.54c0,0.78,0,1.56,0,2.34c-0.86,0.03-1.69,0.2-2.49,0.51c-1.68,0.82-3.29,1.74-4.83,2.78
	c-1.82,1.14-3.79,1.8-5.93,1.98c-1.93-0.1-3.71-0.66-5.34-1.68c-1.94-1.54-4.08-2.71-6.44-3.51c-0.43-0.14-0.87-0.21-1.32-0.22
	c0-2.29,0-4.59,0-6.88c1.53,0.03,2.99,0.34,4.39,0.95c1.68,0.91,3.29,1.94,4.83,3.07c1.96,1.36,4.06,1.65,6.29,0.88
	c1.76-0.83,3.41-1.8,4.98-2.93c1.14-0.62,2.31-1.15,3.51-1.61c0.17-0.79,0.19-1.6,0.07-2.42c-0.83,0.3-1.63,0.67-2.42,1.1
	c-1.67,1.13-3.38,2.2-5.12,3.22c-2.17,1-4.37,1.05-6.59,0.15c-2.24-1.32-4.49-2.63-6.73-3.95c-1.04-0.41-2.11-0.67-3.22-0.81
	c0-2.24,0-4.49,0-6.73c1.3-0.08,2.57,0.09,3.81,0.51c2.02,0.99,3.92,2.16,5.71,3.51c1.95,1.35,4,1.54,6.15,0.59
	c1.59-0.82,3.1-1.74,4.54-2.78c1.22-0.68,2.49-1.24,3.81-1.68c0.15-0.77,0.19-1.56,0.15-2.34c-0.92,0.19-1.8,0.5-2.63,0.95
	c-1.37,0.98-2.73,1.95-4.1,2.93c-2.95,1.69-5.88,1.64-8.78-0.15C90,7.04,88.15,5.91,86.15,5.01c-1-0.31-2.03-0.48-3.07-0.51
	C83.08,3.72,83.08,2.94,83.08,2.16"/>
</svg>
